<?xml version="1.0" encoding="UTF-8" standalone="no"?>
<svg width="220.486mm" height="25.4mm"
 xmlns="http://www.w3.org/2000/svg" xmlns:xlink="http://www.w3.org/1999/xlink"  version="1.2" baseProfile="tiny">
<title>Qt SVG Document</title>
<desc>Generated with Qt</desc>
<defs>
</defs>
<g fill="none" stroke="black" stroke-width="1" fill-rule="evenodd" stroke-linecap="square" stroke-linejoin="bevel" >

<g fill="none" stroke="#000000" stroke-opacity="1" stroke-width="1" stroke-linecap="square" stroke-linejoin="bevel" transform="matrix(1,0,0,1,0,0)"
font-family="Ubuntu" font-size="11" font-weight="400" font-style="normal" 
>
</g>

<g fill="none" stroke="#000000" stroke-opacity="1" stroke-width="1" stroke-linecap="square" stroke-linejoin="bevel" transform="matrix(1,0,0,1,0,0)"
font-family="Ubuntu" font-size="11" font-weight="400" font-style="normal" 
>
</g>

<g fill="none" stroke="#000000" stroke-opacity="1" stroke-width="1" stroke-linecap="square" stroke-linejoin="bevel" transform="matrix(2,0,0,2,-0.0004,72)"
font-family="Ubuntu" font-size="11" font-weight="400" font-style="normal" 
>
</g>

<g fill="#ffffff" fill-opacity="1" stroke="none" transform="matrix(2,0,0,2,-0.0004,72)"
font-family="Ubuntu" font-size="11" font-weight="400" font-style="normal" 
>
<rect x="0.0002" y="-36" width="312.385" height="36"/>
</g>

<g fill="none" stroke="#000000" stroke-opacity="1" stroke-width="1" stroke-linecap="square" stroke-linejoin="bevel" transform="matrix(2,0,0,2,-0.0004,72)"
font-family="Ubuntu" font-size="11" font-weight="400" font-style="normal" 
>
</g>

<g fill="none" stroke="#000000" stroke-opacity="1" stroke-width="1" stroke-linecap="square" stroke-linejoin="bevel" transform="matrix(2,0,0,2,-0.0004,72)"
font-family="Ubuntu" font-size="11" font-weight="400" font-style="normal" 
>
</g>

<g fill="none" stroke="#000000" stroke-opacity="1" stroke-width="1" stroke-linecap="square" stroke-linejoin="bevel" transform="matrix(2,0,0,2,-0.0004,72)"
font-family="Ubuntu" font-size="11" font-weight="400" font-style="normal" 
>
</g>

<g fill="none" stroke="#000000" stroke-opacity="1" stroke-width="1" stroke-linecap="square" stroke-linejoin="bevel" transform="matrix(2,0,0,2,-0.0004,72)"
font-family="Ubuntu" font-size="11" font-weight="400" font-style="normal" 
>
</g>

<g fill="none" stroke="#000000" stroke-opacity="1" stroke-width="1" stroke-linecap="square" stroke-linejoin="round" transform="matrix(2,0,0,2,-0.0004,72)"
font-family="Ubuntu" font-size="11" font-weight="400" font-style="normal" 
>
<ellipse cx="57.845" cy="-18" rx="57.3448" ry="17.5"/>
</g>

<g fill="none" stroke="#000000" stroke-opacity="1" stroke-width="1" stroke-linecap="square" stroke-linejoin="bevel" transform="matrix(2,0,0,2,-0.0004,72)"
font-family="Ubuntu" font-size="11" font-weight="400" font-style="normal" 
>
</g>

<g fill="none" stroke="#000000" stroke-opacity="1" stroke-width="1" stroke-linecap="square" stroke-linejoin="bevel" transform="matrix(2,0,0,2,41.9865,22)"
font-family="Ubuntu" font-size="11" font-weight="400" font-style="normal" 
>
</g>

<g fill="none" stroke="#000000" stroke-opacity="1" stroke-width="1" stroke-linecap="square" stroke-linejoin="bevel" transform="matrix(2,0,0,2,41.9865,22)"
font-family="sans" font-size="11" font-weight="100" font-style="normal" 
>
</g>

<g fill="#000000" fill-opacity="1" stroke="#000000" stroke-opacity="1" stroke-width="1" stroke-linecap="square" stroke-linejoin="round" transform="matrix(2,0,0,2,41.9865,22)"
font-family="sans" font-size="11" font-weight="100" font-style="normal" 
>
<path vector-effect="none" fill-rule="nonzero" d="M2.79688,2.98438 L3.70313,2.98438 L0.90625,12.0156 L0,12.0156 L2.79688,2.98438 M5.71875,3.28125 L5.71875,4.98438 L7.75,4.98438 L7.75,5.75 L5.71875,5.75 L5.71875,9.01563 C5.71875,9.50521 5.78646,9.82031 5.92188,9.96094 C6.05729,10.1016 6.32813,10.1719 6.73438,10.1719 L7.75,10.1719 L7.75,11 L6.73438,11 C5.97396,11 5.44792,10.8568 5.15625,10.5703 C4.86458,10.2839 4.71875,9.76563 4.71875,9.01563 L4.71875,5.75 L4,5.75 L4,4.98438 L4.71875,4.98438 L4.71875,3.28125 L5.71875,3.28125 M14.2031,7.75 L14.2031,8.23438 L9.65625,8.23438 C9.69792,8.91146 9.90104,9.42708 10.2656,9.78125 C10.6302,10.1354 11.1406,10.3125 11.7969,10.3125 C12.1823,10.3125 12.5521,10.2656 12.9063,10.1719 C13.2604,10.0781 13.6146,9.94271 13.9688,9.76563 L13.9688,10.6875 C13.6146,10.8438 13.25,10.9609 12.875,11.0391 C12.5,11.1172 12.125,11.1563 11.75,11.1563 C10.7813,11.1563 10.0182,10.8776 9.46094,10.3203 C8.90365,9.76302 8.625,9.00521 8.625,8.04688 C8.625,7.06771 8.89063,6.28906 9.42188,5.71094 C9.95313,5.13281 10.6719,4.84375 11.5781,4.84375 C12.3802,4.84375 13.0182,5.10417 13.4922,5.625 C13.9661,6.14583 14.2031,6.85417 14.2031,7.75 M13.2031,7.45313 C13.2031,6.91146 13.0547,6.47917 12.7578,6.15625 C12.4609,5.83333 12.0677,5.67188 11.5781,5.67188 C11.026,5.67188 10.5859,5.82813 10.2578,6.14063 C9.92969,6.45313 9.73958,6.89063 9.6875,7.45313 L13.2031,7.45313 M15.8125,2.64063 L16.8125,2.64063 L16.8125,11 L15.8125,11 L15.8125,2.64063 M24.0156,7.75 L24.0156,8.23438 L19.4688,8.23438 C19.5104,8.91146 19.7135,9.42708 20.0781,9.78125 C20.4427,10.1354 20.9531,10.3125 21.6094,10.3125 C21.9948,10.3125 22.3646,10.2656 22.7188,10.1719 C23.0729,10.0781 23.4271,9.94271 23.7813,9.76563 L23.7813,10.6875 C23.4271,10.8438 23.0625,10.9609 22.6875,11.0391 C22.3125,11.1172 21.9375,11.1563 21.5625,11.1563 C20.5938,11.1563 19.8307,10.8776 19.2734,10.3203 C18.7161,9.76302 18.4375,9.00521 18.4375,8.04688 C18.4375,7.06771 18.7031,6.28906 19.2344,5.71094 C19.7656,5.13281 20.4844,4.84375 21.3906,4.84375 C22.1927,4.84375 22.8307,5.10417 23.3047,5.625 C23.7786,6.14583 24.0156,6.85417 24.0156,7.75 M23.0156,7.45313 C23.0156,6.91146 22.8672,6.47917 22.5703,6.15625 C22.2734,5.83333 21.8802,5.67188 21.3906,5.67188 C20.8385,5.67188 20.3984,5.82813 20.0703,6.14063 C19.7422,6.45313 19.5521,6.89063 19.5,7.45313 L23.0156,7.45313 M27.9688,5.67188 C27.4375,5.67188 27.0182,5.88021 26.7109,6.29688 C26.4036,6.71354 26.25,7.28125 26.25,8 C26.25,8.71875 26.401,9.28385 26.7031,9.69531 C27.0052,10.1068 27.4271,10.3125 27.9688,10.3125 C28.4896,10.3125 28.9036,10.1068 29.2109,9.69531 C29.5182,9.28385 29.6719,8.71875 29.6719,8 C29.6719,7.28125 29.5182,6.71354 29.2109,6.29688 C28.9036,5.88021 28.4896,5.67188 27.9688,5.67188 M27.9688,4.84375 C28.8229,4.84375 29.4948,5.1224 29.9844,5.67969 C30.474,6.23698 30.7188,7.01042 30.7188,8 C30.7188,8.97917 30.474,9.75 29.9844,10.3125 C29.4948,10.875 28.8229,11.1563 27.9688,11.1563 C27.1042,11.1563 26.4271,10.875 25.9375,10.3125 C25.4479,9.75 25.2031,8.97917 25.2031,8 C25.2031,7.01042 25.4479,6.23698 25.9375,5.67969 C26.4271,5.1224 27.1042,4.84375 27.9688,4.84375 M33.3125,10.0938 L33.3125,13.2813 L32.3125,13.2813 L32.3125,4.98438 L33.3125,4.98438 L33.3125,5.89063 C33.5104,5.53646 33.7682,5.27344 34.0859,5.10156 C34.4036,4.92969 34.7865,4.84375 35.2344,4.84375 C35.9635,4.84375 36.5547,5.13281 37.0078,5.71094 C37.4609,6.28906 37.6875,7.05208 37.6875,8 C37.6875,8.94792 37.4609,9.71094 37.0078,10.2891 C36.5547,10.8672 35.9635,11.1563 35.2344,11.1563 C34.7865,11.1563 34.4036,11.0703 34.0859,10.8984 C33.7682,10.7266 33.5104,10.4583 33.3125,10.0938 M36.6719,8 C36.6719,7.27083 36.5208,6.70052 36.2188,6.28906 C35.9167,5.8776 35.5052,5.67188 34.9844,5.67188 C34.4635,5.67188 34.0547,5.8776 33.7578,6.28906 C33.4609,6.70052 33.3125,7.27083 33.3125,8 C33.3125,8.72917 33.4609,9.29948 33.7578,9.71094 C34.0547,10.1224 34.4635,10.3281 34.9844,10.3281 C35.5052,10.3281 35.9167,10.1224 36.2188,9.71094 C36.5208,9.29948 36.6719,8.72917 36.6719,8 M43.8906,12.8281 L43.8906,13.5938 L38.1719,13.5938 L38.1719,12.8281 L43.8906,12.8281 M45.7969,3.28125 L45.7969,4.98438 L47.8281,4.98438 L47.8281,5.75 L45.7969,5.75 L45.7969,9.01563 C45.7969,9.50521 45.8646,9.82031 46,9.96094 C46.1354,10.1016 46.4063,10.1719 46.8125,10.1719 L47.8281,10.1719 L47.8281,11 L46.8125,11 C46.0521,11 45.526,10.8568 45.2344,10.5703 C44.9427,10.2839 44.7969,9.76563 44.7969,9.01563 L44.7969,5.75 L44.0781,5.75 L44.0781,4.98438 L44.7969,4.98438 L44.7969,3.28125 L45.7969,3.28125 M49.0313,8.625 L49.0313,4.98438 L50.0156,4.98438 L50.0156,8.59375 C50.0156,9.15625 50.1276,9.58073 50.3516,9.86719 C50.5755,10.1536 50.9063,10.2969 51.3438,10.2969 C51.8854,10.2969 52.3099,10.1276 52.6172,9.78906 C52.9245,9.45052 53.0781,8.98438 53.0781,8.39063 L53.0781,4.98438 L54.0625,4.98438 L54.0625,11 L53.0781,11 L53.0781,10.0781 C52.8385,10.4427 52.5599,10.7135 52.2422,10.8906 C51.9245,11.0677 51.5573,11.1563 51.1406,11.1563 C50.4531,11.1563 49.9297,10.9401 49.5703,10.5078 C49.2109,10.0755 49.0313,9.44792 49.0313,8.625 M59.5781,5.90625 C59.474,5.84375 59.3568,5.79688 59.2266,5.76563 C59.0964,5.73438 58.9531,5.71875 58.7969,5.71875 C58.2344,5.71875 57.8047,5.90104 57.5078,6.26563 C57.2109,6.63021 57.0625,7.15104 57.0625,7.82813 L57.0625,11 L56.0625,11 L56.0625,4.98438 L57.0625,4.98438 L57.0625,5.92188 C57.2604,5.55729 57.526,5.28646 57.8594,5.10938 C58.1927,4.93229 58.599,4.84375 59.0781,4.84375 C59.151,4.84375 59.2266,4.84635 59.3047,4.85156 C59.3828,4.85677 59.474,4.86979 59.5781,4.89063 L59.5781,5.90625 M61.5938,3.28125 L61.5938,4.98438 L63.625,4.98438 L63.625,5.75 L61.5938,5.75 L61.5938,9.01563 C61.5938,9.50521 61.6615,9.82031 61.7969,9.96094 C61.9323,10.1016 62.2031,10.1719 62.6094,10.1719 L63.625,10.1719 L63.625,11 L62.6094,11 C61.849,11 61.3229,10.8568 61.0313,10.5703 C60.7396,10.2839 60.5938,9.76563 60.5938,9.01563 L60.5938,5.75 L59.875,5.75 L59.875,4.98438 L60.5938,4.98438 L60.5938,3.28125 L61.5938,3.28125 M64.9219,2.64063 L65.9219,2.64063 L65.9219,11 L64.9219,11 L64.9219,2.64063 M73.125,7.75 L73.125,8.23438 L68.5781,8.23438 C68.6198,8.91146 68.8229,9.42708 69.1875,9.78125 C69.5521,10.1354 70.0625,10.3125 70.7188,10.3125 C71.1042,10.3125 71.474,10.2656 71.8281,10.1719 C72.1823,10.0781 72.5365,9.94271 72.8906,9.76563 L72.8906,10.6875 C72.5365,10.8438 72.1719,10.9609 71.7969,11.0391 C71.4219,11.1172 71.0469,11.1563 70.6719,11.1563 C69.7031,11.1563 68.9401,10.8776 68.3828,10.3203 C67.8255,9.76302 67.5469,9.00521 67.5469,8.04688 C67.5469,7.06771 67.8125,6.28906 68.3438,5.71094 C68.875,5.13281 69.5938,4.84375 70.5,4.84375 C71.3021,4.84375 71.9401,5.10417 72.4141,5.625 C72.888,6.14583 73.125,6.85417 73.125,7.75 M72.125,7.45313 C72.125,6.91146 71.9766,6.47917 71.6797,6.15625 C71.3828,5.83333 70.9896,5.67188 70.5,5.67188 C69.9479,5.67188 69.5078,5.82813 69.1797,6.14063 C68.8516,6.45313 68.6615,6.89063 68.6094,7.45313 L72.125,7.45313"/>
</g>

<g fill="none" stroke="#000000" stroke-opacity="1" stroke-width="1" stroke-linecap="square" stroke-linejoin="bevel" transform="matrix(2,0,0,2,41.9865,22)"
font-family="sans" font-size="11" font-weight="100" font-style="normal" 
>
</g>

<g fill="none" stroke="#000000" stroke-opacity="1" stroke-width="1" stroke-linecap="square" stroke-linejoin="bevel" transform="matrix(2,0,0,2,41.9865,22)"
font-family="Ubuntu" font-size="11" font-weight="400" font-style="normal" 
>
</g>

<g fill="none" stroke="#000000" stroke-opacity="1" stroke-width="1" stroke-linecap="square" stroke-linejoin="bevel" transform="matrix(2,0,0,2,-0.0004,72)"
font-family="Ubuntu" font-size="11" font-weight="400" font-style="normal" 
>
</g>

<g fill="none" stroke="#000000" stroke-opacity="1" stroke-width="1" stroke-linecap="square" stroke-linejoin="bevel" transform="matrix(2,0,0,2,-0.0004,72)"
font-family="Ubuntu" font-size="11" font-weight="400" font-style="normal" 
>
</g>

<g fill="none" stroke="#000000" stroke-opacity="1" stroke-width="1" stroke-linecap="square" stroke-linejoin="bevel" transform="matrix(2,0,0,2,-0.0004,72)"
font-family="Ubuntu" font-size="11" font-weight="400" font-style="normal" 
>
</g>

<g fill="none" stroke="#000000" stroke-opacity="1" stroke-width="1" stroke-linecap="square" stroke-linejoin="round" transform="matrix(2,0,0,2,-0.0004,72)"
font-family="Ubuntu" font-size="11" font-weight="400" font-style="normal" 
>
<ellipse cx="267.54" cy="-18" rx="44.3452" ry="17.5"/>
</g>

<g fill="none" stroke="#000000" stroke-opacity="1" stroke-width="1" stroke-linecap="square" stroke-linejoin="bevel" transform="matrix(2,0,0,2,-0.0004,72)"
font-family="Ubuntu" font-size="11" font-weight="400" font-style="normal" 
>
</g>

<g fill="none" stroke="#000000" stroke-opacity="1" stroke-width="1" stroke-linecap="square" stroke-linejoin="bevel" transform="matrix(2,0,0,2,481.986,22)"
font-family="Ubuntu" font-size="11" font-weight="400" font-style="normal" 
>
</g>

<g fill="none" stroke="#000000" stroke-opacity="1" stroke-width="1" stroke-linecap="square" stroke-linejoin="bevel" transform="matrix(2,0,0,2,481.986,22)"
font-family="sans" font-size="11" font-weight="100" font-style="normal" 
>
</g>

<g fill="#000000" fill-opacity="1" stroke="#000000" stroke-opacity="1" stroke-width="1" stroke-linecap="square" stroke-linejoin="round" transform="matrix(2,0,0,2,481.986,22)"
font-family="sans" font-size="11" font-weight="100" font-style="normal" 
>
<path vector-effect="none" fill-rule="nonzero" d="M2.79688,2.98438 L3.70313,2.98438 L0.90625,12.0156 L0,12.0156 L2.79688,2.98438 M5.71875,3.28125 L5.71875,4.98438 L7.75,4.98438 L7.75,5.75 L5.71875,5.75 L5.71875,9.01563 C5.71875,9.50521 5.78646,9.82031 5.92188,9.96094 C6.05729,10.1016 6.32813,10.1719 6.73438,10.1719 L7.75,10.1719 L7.75,11 L6.73438,11 C5.97396,11 5.44792,10.8568 5.15625,10.5703 C4.86458,10.2839 4.71875,9.76563 4.71875,9.01563 L4.71875,5.75 L4,5.75 L4,4.98438 L4.71875,4.98438 L4.71875,3.28125 L5.71875,3.28125 M8.95313,8.625 L8.95313,4.98438 L9.9375,4.98438 L9.9375,8.59375 C9.9375,9.15625 10.0495,9.58073 10.2734,9.86719 C10.4974,10.1536 10.8281,10.2969 11.2656,10.2969 C11.8073,10.2969 12.2318,10.1276 12.5391,9.78906 C12.8464,9.45052 13,8.98438 13,8.39063 L13,4.98438 L13.9844,4.98438 L13.9844,11 L13,11 L13,10.0781 C12.7604,10.4427 12.4818,10.7135 12.1641,10.8906 C11.8464,11.0677 11.4792,11.1563 11.0625,11.1563 C10.375,11.1563 9.85156,10.9401 9.49219,10.5078 C9.13281,10.0755 8.95313,9.44792 8.95313,8.625 M19.5,5.90625 C19.3958,5.84375 19.2786,5.79688 19.1484,5.76563 C19.0182,5.73438 18.875,5.71875 18.7188,5.71875 C18.1563,5.71875 17.7266,5.90104 17.4297,6.26563 C17.1328,6.63021 16.9844,7.15104 16.9844,7.82813 L16.9844,11 L15.9844,11 L15.9844,4.98438 L16.9844,4.98438 L16.9844,5.92188 C17.1823,5.55729 17.4479,5.28646 17.7813,5.10938 C18.1146,4.93229 18.5208,4.84375 19,4.84375 C19.0729,4.84375 19.1484,4.84635 19.2266,4.85156 C19.3047,4.85677 19.3958,4.86979 19.5,4.89063 L19.5,5.90625 M21.5156,3.28125 L21.5156,4.98438 L23.5469,4.98438 L23.5469,5.75 L21.5156,5.75 L21.5156,9.01563 C21.5156,9.50521 21.5833,9.82031 21.7188,9.96094 C21.8542,10.1016 22.125,10.1719 22.5313,10.1719 L23.5469,10.1719 L23.5469,11 L22.5313,11 C21.7708,11 21.2448,10.8568 20.9531,10.5703 C20.6615,10.2839 20.5156,9.76563 20.5156,9.01563 L20.5156,5.75 L19.7969,5.75 L19.7969,4.98438 L20.5156,4.98438 L20.5156,3.28125 L21.5156,3.28125 M24.8438,2.64063 L25.8438,2.64063 L25.8438,11 L24.8438,11 L24.8438,2.64063 M33.0469,7.75 L33.0469,8.23438 L28.5,8.23438 C28.5417,8.91146 28.7448,9.42708 29.1094,9.78125 C29.474,10.1354 29.9844,10.3125 30.6406,10.3125 C31.026,10.3125 31.3958,10.2656 31.75,10.1719 C32.1042,10.0781 32.4583,9.94271 32.8125,9.76563 L32.8125,10.6875 C32.4583,10.8438 32.0938,10.9609 31.7188,11.0391 C31.3438,11.1172 30.9688,11.1563 30.5938,11.1563 C29.625,11.1563 28.862,10.8776 28.3047,10.3203 C27.7474,9.76302 27.4688,9.00521 27.4688,8.04688 C27.4688,7.06771 27.7344,6.28906 28.2656,5.71094 C28.7969,5.13281 29.5156,4.84375 30.4219,4.84375 C31.224,4.84375 31.862,5.10417 32.3359,5.625 C32.8099,6.14583 33.0469,6.85417 33.0469,7.75 M32.0469,7.45313 C32.0469,6.91146 31.8984,6.47917 31.6016,6.15625 C31.3047,5.83333 30.9115,5.67188 30.4219,5.67188 C29.8698,5.67188 29.4297,5.82813 29.1016,6.14063 C28.7734,6.45313 28.5833,6.89063 28.5313,7.45313 L32.0469,7.45313 M38.5,5.15625 L38.5,6.09375 C38.2188,5.94792 37.9271,5.84115 37.625,5.77344 C37.3229,5.70573 37.0104,5.67188 36.6875,5.67188 C36.1979,5.67188 35.8307,5.7474 35.5859,5.89844 C35.3411,6.04948 35.2188,6.27083 35.2188,6.5625 C35.2188,6.79167 35.3073,6.97135 35.4844,7.10156 C35.6615,7.23177 36.0156,7.35938 36.5469,7.48438 L36.875,7.5625 C37.5833,7.70833 38.0833,7.91927 38.375,8.19531 C38.6667,8.47135 38.8125,8.85417 38.8125,9.34375 C38.8125,9.89583 38.5938,10.3359 38.1563,10.6641 C37.7188,10.9922 37.1094,11.1563 36.3281,11.1563 C36.0052,11.1563 35.6693,11.125 35.3203,11.0625 C34.9714,11 34.6042,10.9063 34.2188,10.7813 L34.2188,9.76563 C34.5833,9.95313 34.9427,10.0938 35.2969,10.1875 C35.651,10.2813 36.0052,10.3281 36.3594,10.3281 C36.8177,10.3281 37.1719,10.2474 37.4219,10.0859 C37.6719,9.92448 37.7969,9.70313 37.7969,9.42188 C37.7969,9.15104 37.7083,8.94271 37.5313,8.79688 C37.3542,8.65104 36.9583,8.51563 36.3438,8.39063 L36,8.29688 C35.3854,8.17188 34.9427,7.97656 34.6719,7.71094 C34.401,7.44531 34.2656,7.07813 34.2656,6.60938 C34.2656,6.04688 34.4661,5.61198 34.8672,5.30469 C35.2682,4.9974 35.8385,4.84375 36.5781,4.84375 C36.9427,4.84375 37.2865,4.86979 37.6094,4.92188 C37.9323,4.97396 38.2292,5.05208 38.5,5.15625 M40.375,4.98438 L41.375,4.98438 L41.375,11 L40.375,11 L40.375,4.98438 M40.375,2.64063 L41.375,2.64063 L41.375,3.89063 L40.375,3.89063 L40.375,2.64063 M48.1094,6.14063 C48.3594,5.69271 48.6563,5.36458 49,5.15625 C49.3438,4.94792 49.75,4.84375 50.2188,4.84375 C50.8438,4.84375 51.3255,5.0625 51.6641,5.5 C52.0026,5.9375 52.1719,6.5625 52.1719,7.375 L52.1719,11 L51.1719,11 L51.1719,7.40625 C51.1719,6.82292 51.0703,6.39323 50.8672,6.11719 C50.6641,5.84115 50.3542,5.70313 49.9375,5.70313 C49.4271,5.70313 49.0234,5.8724 48.7266,6.21094 C48.4297,6.54948 48.2813,7.01042 48.2813,7.59375 L48.2813,11 L47.2813,11 L47.2813,7.40625 C47.2813,6.82292 47.1797,6.39323 46.9766,6.11719 C46.7734,5.84115 46.4583,5.70313 46.0313,5.70313 C45.5313,5.70313 45.1328,5.8724 44.8359,6.21094 C44.5391,6.54948 44.3906,7.01042 44.3906,7.59375 L44.3906,11 L43.3906,11 L43.3906,4.98438 L44.3906,4.98438 L44.3906,5.92188 C44.6094,5.54688 44.8776,5.27344 45.1953,5.10156 C45.513,4.92969 45.8854,4.84375 46.3125,4.84375 C46.75,4.84375 47.1224,4.95313 47.4297,5.17188 C47.737,5.39063 47.9635,5.71354 48.1094,6.14063 "/>
</g>

<g fill="none" stroke="#000000" stroke-opacity="1" stroke-width="1" stroke-linecap="square" stroke-linejoin="bevel" transform="matrix(2,0,0,2,481.986,22)"
font-family="sans" font-size="11" font-weight="100" font-style="normal" 
>
</g>

<g fill="none" stroke="#000000" stroke-opacity="1" stroke-width="1" stroke-linecap="square" stroke-linejoin="bevel" transform="matrix(2,0,0,2,481.986,22)"
font-family="Ubuntu" font-size="11" font-weight="400" font-style="normal" 
>
</g>

<g fill="none" stroke="#000000" stroke-opacity="1" stroke-width="1" stroke-linecap="square" stroke-linejoin="bevel" transform="matrix(2,0,0,2,-0.0004,72)"
font-family="Ubuntu" font-size="11" font-weight="400" font-style="normal" 
>
</g>

<g fill="none" stroke="#000000" stroke-opacity="1" stroke-width="1" stroke-linecap="square" stroke-linejoin="bevel" transform="matrix(2,0,0,2,-0.0004,72)"
font-family="Ubuntu" font-size="11" font-weight="400" font-style="normal" 
>
</g>

<g fill="none" stroke="#000000" stroke-opacity="1" stroke-width="1" stroke-linecap="square" stroke-linejoin="bevel" transform="matrix(2,0,0,2,-0.0004,72)"
font-family="Ubuntu" font-size="11" font-weight="400" font-style="normal" 
>
</g>

<g fill="none" stroke="#000000" stroke-opacity="1" stroke-width="1" stroke-linecap="square" stroke-linejoin="round" transform="matrix(2,0,0,2,-0.0004,72)"
font-family="Ubuntu" font-size="11" font-weight="400" font-style="normal" 
>
<path vector-effect="none" fill-rule="evenodd" d="M115.7,-18 C145.85,-18 182.53,-18 212.28,-18 "/>
</g>

<g fill="none" stroke="#000000" stroke-opacity="1" stroke-width="1" stroke-linecap="square" stroke-linejoin="bevel" transform="matrix(2,0,0,2,-0.0004,72)"
font-family="Ubuntu" font-size="11" font-weight="400" font-style="normal" 
>
</g>

<g fill="none" stroke="#000000" stroke-opacity="1" stroke-width="1" stroke-linecap="square" stroke-linejoin="bevel" transform="matrix(2,0,0,2,248.536,7)"
font-family="Ubuntu" font-size="11" font-weight="400" font-style="normal" 
>
</g>

<g fill="none" stroke="#000000" stroke-opacity="1" stroke-width="1" stroke-linecap="square" stroke-linejoin="bevel" transform="matrix(2,0,0,2,248.536,7)"
font-family="sans" font-size="11" font-weight="100" font-style="normal" 
>
</g>

<g fill="#000000" fill-opacity="1" stroke="#000000" stroke-opacity="1" stroke-width="1" stroke-linecap="square" stroke-linejoin="round" transform="matrix(2,0,0,2,248.536,7)"
font-family="sans" font-size="11" font-weight="100" font-style="normal" 
>
<path vector-effect="none" fill-rule="nonzero" d="M2.79688,2.98438 L3.70313,2.98438 L0.90625,12.0156 L0,12.0156 L2.79688,2.98438 M5.71875,3.28125 L5.71875,4.98438 L7.75,4.98438 L7.75,5.75 L5.71875,5.75 L5.71875,9.01563 C5.71875,9.50521 5.78646,9.82031 5.92188,9.96094 C6.05729,10.1016 6.32813,10.1719 6.73438,10.1719 L7.75,10.1719 L7.75,11 L6.73438,11 C5.97396,11 5.44792,10.8568 5.15625,10.5703 C4.86458,10.2839 4.71875,9.76563 4.71875,9.01563 L4.71875,5.75 L4,5.75 L4,4.98438 L4.71875,4.98438 L4.71875,3.28125 L5.71875,3.28125 M8.95313,8.625 L8.95313,4.98438 L9.9375,4.98438 L9.9375,8.59375 C9.9375,9.15625 10.0495,9.58073 10.2734,9.86719 C10.4974,10.1536 10.8281,10.2969 11.2656,10.2969 C11.8073,10.2969 12.2318,10.1276 12.5391,9.78906 C12.8464,9.45052 13,8.98438 13,8.39063 L13,4.98438 L13.9844,4.98438 L13.9844,11 L13,11 L13,10.0781 C12.7604,10.4427 12.4818,10.7135 12.1641,10.8906 C11.8464,11.0677 11.4792,11.1563 11.0625,11.1563 C10.375,11.1563 9.85156,10.9401 9.49219,10.5078 C9.13281,10.0755 8.95313,9.44792 8.95313,8.625 M19.5,5.90625 C19.3958,5.84375 19.2786,5.79688 19.1484,5.76563 C19.0182,5.73438 18.875,5.71875 18.7188,5.71875 C18.1563,5.71875 17.7266,5.90104 17.4297,6.26563 C17.1328,6.63021 16.9844,7.15104 16.9844,7.82813 L16.9844,11 L15.9844,11 L15.9844,4.98438 L16.9844,4.98438 L16.9844,5.92188 C17.1823,5.55729 17.4479,5.28646 17.7813,5.10938 C18.1146,4.93229 18.5208,4.84375 19,4.84375 C19.0729,4.84375 19.1484,4.84635 19.2266,4.85156 C19.3047,4.85677 19.3958,4.86979 19.5,4.89063 L19.5,5.90625 M21.5156,3.28125 L21.5156,4.98438 L23.5469,4.98438 L23.5469,5.75 L21.5156,5.75 L21.5156,9.01563 C21.5156,9.50521 21.5833,9.82031 21.7188,9.96094 C21.8542,10.1016 22.125,10.1719 22.5313,10.1719 L23.5469,10.1719 L23.5469,11 L22.5313,11 C21.7708,11 21.2448,10.8568 20.9531,10.5703 C20.6615,10.2839 20.5156,9.76563 20.5156,9.01563 L20.5156,5.75 L19.7969,5.75 L19.7969,4.98438 L20.5156,4.98438 L20.5156,3.28125 L21.5156,3.28125 M24.8438,2.64063 L25.8438,2.64063 L25.8438,11 L24.8438,11 L24.8438,2.64063 M33.0469,7.75 L33.0469,8.23438 L28.5,8.23438 C28.5417,8.91146 28.7448,9.42708 29.1094,9.78125 C29.474,10.1354 29.9844,10.3125 30.6406,10.3125 C31.026,10.3125 31.3958,10.2656 31.75,10.1719 C32.1042,10.0781 32.4583,9.94271 32.8125,9.76563 L32.8125,10.6875 C32.4583,10.8438 32.0938,10.9609 31.7188,11.0391 C31.3438,11.1172 30.9688,11.1563 30.5938,11.1563 C29.625,11.1563 28.862,10.8776 28.3047,10.3203 C27.7474,9.76302 27.4688,9.00521 27.4688,8.04688 C27.4688,7.06771 27.7344,6.28906 28.2656,5.71094 C28.7969,5.13281 29.5156,4.84375 30.4219,4.84375 C31.224,4.84375 31.862,5.10417 32.3359,5.625 C32.8099,6.14583 33.0469,6.85417 33.0469,7.75 M32.0469,7.45313 C32.0469,6.91146 31.8984,6.47917 31.6016,6.15625 C31.3047,5.83333 30.9115,5.67188 30.4219,5.67188 C29.8698,5.67188 29.4297,5.82813 29.1016,6.14063 C28.7734,6.45313 28.5833,6.89063 28.5313,7.45313 L32.0469,7.45313 M34.9844,10.0938 L36.7656,10.0938 L36.7656,3.96875 L34.8281,4.35938 L34.8281,3.375 L36.75,2.98438 L37.8438,2.98438 L37.8438,10.0938 L39.6094,10.0938 L39.6094,11 L34.9844,11 L34.9844,10.0938 M43.4063,2.98438 L44.3125,2.98438 L41.5156,12.0156 L40.6094,12.0156 L43.4063,2.98438 M49.6719,5.21875 L49.6719,6.14063 C49.401,5.98438 49.125,5.86719 48.8438,5.78906 C48.5625,5.71094 48.276,5.67188 47.9844,5.67188 C47.349,5.67188 46.8542,5.875 46.5,6.28125 C46.1458,6.6875 45.9688,7.26042 45.9688,8 C45.9688,8.72917 46.1458,9.29688 46.5,9.70313 C46.8542,10.1094 47.349,10.3125 47.9844,10.3125 C48.276,10.3125 48.5625,10.276 48.8438,10.2031 C49.125,10.1302 49.401,10.0156 49.6719,9.85938 L49.6719,10.7656 C49.401,10.901 49.1172,11 48.8203,11.0625 C48.5234,11.125 48.2083,11.1563 47.875,11.1563 C46.9688,11.1563 46.25,10.8724 45.7188,10.3047 C45.1875,9.73698 44.9219,8.96875 44.9219,8 C44.9219,7.02083 45.1901,6.25 45.7266,5.6875 C46.263,5.125 47,4.84375 47.9375,4.84375 C48.25,4.84375 48.5495,4.875 48.8359,4.9375 C49.1224,5 49.401,5.09375 49.6719,5.21875 M56.0781,6.14063 C56.3281,5.69271 56.625,5.36458 56.9688,5.15625 C57.3125,4.94792 57.7188,4.84375 58.1875,4.84375 C58.8125,4.84375 59.2943,5.0625 59.6328,5.5 C59.9714,5.9375 60.1406,6.5625 60.1406,7.375 L60.1406,11 L59.1406,11 L59.1406,7.40625 C59.1406,6.82292 59.0391,6.39323 58.8359,6.11719 C58.6328,5.84115 58.3229,5.70313 57.9063,5.70313 C57.3958,5.70313 56.9922,5.8724 56.6953,6.21094 C56.3984,6.54948 56.25,7.01042 56.25,7.59375 L56.25,11 L55.25,11 L55.25,7.40625 C55.25,6.82292 55.1484,6.39323 54.9453,6.11719 C54.7422,5.84115 54.4271,5.70313 54,5.70313 C53.5,5.70313 53.1016,5.8724 52.8047,6.21094 C52.5078,6.54948 52.3594,7.01042 52.3594,7.59375 L52.3594,11 L51.3594,11 L51.3594,4.98438 L52.3594,4.98438 L52.3594,5.92188 C52.5781,5.54688 52.8464,5.27344 53.1641,5.10156 C53.4818,4.92969 53.8542,4.84375 54.2813,4.84375 C54.7188,4.84375 55.0911,4.95313 55.3984,5.17188 C55.7057,5.39063 55.9323,5.71354 56.0781,6.14063 M66.0625,5.89063 L66.0625,2.64063 L67.0469,2.64063 L67.0469,11 L66.0625,11 L66.0625,10.0938 C65.8542,10.4583 65.5911,10.7266 65.2734,10.8984 C64.9557,11.0703 64.5729,11.1563 64.125,11.1563 C63.4063,11.1563 62.8177,10.8672 62.3594,10.2891 C61.901,9.71094 61.6719,8.94792 61.6719,8 C61.6719,7.05208 61.901,6.28906 62.3594,5.71094 C62.8177,5.13281 63.4063,4.84375 64.125,4.84375 C64.5729,4.84375 64.9557,4.92969 65.2734,5.10156 C65.5911,5.27344 65.8542,5.53646 66.0625,5.89063 M62.6875,8 C62.6875,8.72917 62.8385,9.29948 63.1406,9.71094 C63.4427,10.1224 63.8542,10.3281 64.375,10.3281 C64.8958,10.3281 65.3073,10.1224 65.6094,9.71094 C65.9115,9.29948 66.0625,8.72917 66.0625,8 C66.0625,7.27083 65.9115,6.70052 65.6094,6.28906 C65.3073,5.8776 64.8958,5.67188 64.375,5.67188 C63.8542,5.67188 63.4427,5.8776 63.1406,6.28906 C62.8385,6.70052 62.6875,7.27083 62.6875,8 M73.6406,12.8281 L73.6406,13.5938 L67.9219,13.5938 L67.9219,12.8281 L73.6406,12.8281 M73.8594,4.98438 L74.9063,4.98438 L76.7813,10.0313 L78.6719,4.98438 L79.7188,4.98438 L77.4531,11 L76.1094,11 L73.8594,4.98438 M86.2188,7.75 L86.2188,8.23438 L81.6719,8.23438 C81.7135,8.91146 81.9167,9.42708 82.2813,9.78125 C82.6458,10.1354 83.1563,10.3125 83.8125,10.3125 C84.1979,10.3125 84.5677,10.2656 84.9219,10.1719 C85.276,10.0781 85.6302,9.94271 85.9844,9.76563 L85.9844,10.6875 C85.6302,10.8438 85.2656,10.9609 84.8906,11.0391 C84.5156,11.1172 84.1406,11.1563 83.7656,11.1563 C82.7969,11.1563 82.0339,10.8776 81.4766,10.3203 C80.9193,9.76302 80.6406,9.00521 80.6406,8.04688 C80.6406,7.06771 80.9063,6.28906 81.4375,5.71094 C81.9688,5.13281 82.6875,4.84375 83.5938,4.84375 C84.3958,4.84375 85.0339,5.10417 85.5078,5.625 C85.9818,6.14583 86.2188,6.85417 86.2188,7.75 M85.2188,7.45313 C85.2188,6.91146 85.0703,6.47917 84.7734,6.15625 C84.4766,5.83333 84.0833,5.67188 83.5938,5.67188 C83.0417,5.67188 82.6016,5.82813 82.2734,6.14063 C81.9453,6.45313 81.7552,6.89063 81.7031,7.45313 L85.2188,7.45313 M87.8281,2.64063 L88.8281,2.64063 L88.8281,11 L87.8281,11 L87.8281,2.64063"/>
</g>

<g fill="none" stroke="#000000" stroke-opacity="1" stroke-width="1" stroke-linecap="square" stroke-linejoin="bevel" transform="matrix(2,0,0,2,248.536,7)"
font-family="sans" font-size="11" font-weight="100" font-style="normal" 
>
</g>

<g fill="none" stroke="#000000" stroke-opacity="1" stroke-width="1" stroke-linecap="square" stroke-linejoin="bevel" transform="matrix(2,0,0,2,248.536,7)"
font-family="Ubuntu" font-size="11" font-weight="400" font-style="normal" 
>
</g>

<g fill="none" stroke="#000000" stroke-opacity="1" stroke-width="1" stroke-linecap="square" stroke-linejoin="bevel" transform="matrix(2,0,0,2,-0.0004,72)"
font-family="Ubuntu" font-size="11" font-weight="400" font-style="normal" 
>
</g>

<g fill="#000000" fill-opacity="1" stroke="#000000" stroke-opacity="1" stroke-width="1" stroke-linecap="square" stroke-linejoin="round" transform="matrix(2,0,0,2,-0.0004,72)"
font-family="Ubuntu" font-size="11" font-weight="400" font-style="normal" 
>
<path vector-effect="none" fill-rule="evenodd" d="M212.28,-18 L212.28,-14.423 L222.5,-18 L212.28,-21.577 L212.28,-18"/>
</g>

<g fill="none" stroke="#000000" stroke-opacity="1" stroke-width="1" stroke-linecap="square" stroke-linejoin="bevel" transform="matrix(2,0,0,2,-0.0004,72)"
font-family="Ubuntu" font-size="11" font-weight="400" font-style="normal" 
>
</g>

<g fill="none" stroke="#000000" stroke-opacity="1" stroke-width="1" stroke-linecap="square" stroke-linejoin="bevel" transform="matrix(1,0,0,1,0,0)"
font-family="Ubuntu" font-size="11" font-weight="400" font-style="normal" 
>
</g>
</g>
</svg>
